<?xml version="1.0" encoding="UTF-8"?>
<svg id="Layer_1" data-name="Layer 1" xmlns="http://www.w3.org/2000/svg" viewBox="0 0 400.5 100">
  <defs>
    <style>
      .cls-1 {
        fill: #1e3a8a;
        font-size: 50.72px;
        letter-spacing: .05em;
      }

      .cls-1, .cls-2 {
        font-family: Arial-BoldMT, Arial;
        font-weight: 700;
        isolation: isolate;
      }

      .cls-3 {
        stroke: #cf452b;
      }

      .cls-3, .cls-4, .cls-5, .cls-6, .cls-7, .cls-8 {
        fill: none;
      }

      .cls-4 {
        stroke: #e6a269;
      }

      .cls-9 {
        fill: #e16629;
      }

      .cls-9, .cls-10, .cls-11, .cls-12, .cls-13, .cls-14 {
        fill-rule: evenodd;
      }

      .cls-5 {
        stroke: #e16629;
      }

      .cls-6 {
        stroke: #e36726;
      }

      .cls-10 {
        fill: #173678;
      }

      .cls-2 {
        fill: #ff6b35;
        font-size: 35.51px;
      }

      .cls-11 {
        fill: #22448a;
      }

      .cls-12 {
        fill: #cf452b;
      }

      .cls-7 {
        stroke: #22448a;
      }

      .cls-13 {
        fill: #e6a269;
      }

      .cls-15 {
        letter-spacing: -.06em;
      }

      .cls-14 {
        fill: #e36726;
      }

      .cls-8 {
        stroke: #173678;
      }

      .cls-16 {
        letter-spacing: .02em;
      }

      .cls-17 {
        letter-spacing: .04em;
      }
    </style>
  </defs>
  <path class="cls-6" d="M125.83,21.42h0s-2.08,8.92-4.63,19.81c-2.54,10.89-4.8,19.99-5.01,20.2s-3.33-.66-6.94-1.94-9.68-2.86-13.49-3.5-8.85-1.17-11.18-1.17-6.85.53-10.02,1.17-7.69,2.04-10.02,3.11-4.76,1.94-5.4,1.94c-.96,0-1.03-.47-.39-2.72.42-1.5,2.51-9.53,4.63-17.87s4.55-17.95,5.4-21.37,1.89-7.09,2.31-8.16c.54-1.36,2.51-2.76,6.55-4.66,3.18-1.5,8.56-3.25,11.95-3.88,3.92-.75,8.55-1.03,12.72-.78,3.61.21,9.5,1.26,19.66,4.27" vector-effect="non-scaling-stroke"/>
  <path class="cls-3" d="M121.97,5.88h0s1.39.53,3.08,1.17c1.71.64,3.08,1.69,3.08,2.33s-.52,3.61-2.31,12.04" vector-effect="non-scaling-stroke"/>
  <path class="cls-3" d="M125.83,21.42h0s-.69-1.22-1.54-2.72c-.98-1.72-1.54-4.14-1.54-6.6,0-2.14-.18-4.41-.77-6.22" vector-effect="non-scaling-stroke"/>
  <path class="cls-5" d="M41.78,54.05h0s-2.08-.35-4.63-.78-4.8-.96-5.01-1.17.66-3.19,4.24-12.82l8.87-.39c6.55-.29,9.77-.79,12.34-1.94,2.91-1.31,3.47-1.37,3.47-.39,0,.64-1.39,6.59-3.08,13.21s-3.43,13.09-3.86,14.37-.77,2.86-.77,3.5,3.12,3.44,13.88,11.27l-1.54,1.55c-.85.85-3.28,2.25-5.4,3.11s-7.32,2.25-11.57,3.11c-6.26,1.26-9.66,1.48-18.12,1.17-8-.3-11.93-.84-16.96-2.33-3.61-1.07-7.94-2.81-9.64-3.88-1.7-1.07-3.25-2.29-3.47-2.72-.22-.44.64-.78,1.93-.78s4.92-1.4,8.1-3.11c5.58-3,6.04-3.11,13.11-3.11,4.03,0,8.88-.18,10.79-.39s3.47-.74,3.47-1.17-3.47-1.13-7.71-1.55-7.89-.96-8.1-1.17,1.17-2.66,3.08-5.44,4.16-5.4,5.01-5.83,3.62-.96,10.79-1.55" vector-effect="non-scaling-stroke"/>
  <path class="cls-4" d="M41.01,54.82h.39c.21,0,.39-.18.39-.78" vector-effect="non-scaling-stroke"/>
  <path class="cls-4" d="M41.78,54.05h0s.52-.18,1.16-.39,1.16-.04,1.16.39-.35.78-.77.78h-2.31" vector-effect="non-scaling-stroke"/>
  <path class="cls-8" d="M65.69,61.04h0s.86-.35,1.93-.78,2.79-.96,3.86-1.17,1.93-.04,1.93.39-.69,3.22-3.08,11.65" vector-effect="non-scaling-stroke"/>
  <path class="cls-7" d="M65.69,61.04h0s.52,1.05,1.16,2.33c.69,1.38,1,3.44.77,5.05-.22,1.55-.05,2.72.39,2.72h2.31" vector-effect="non-scaling-stroke"/>
  <path class="cls-7" d="M70.31,71.14h0s-.35,1.22-.77,2.72c-.54,1.89-1.13,2.6-1.93,2.33-.63-.21-3.24-1.96-5.78-3.88-2.95-2.24-4.63-4.06-4.63-5.05,0-.85.52-1.9,1.16-2.33s2.54-1.48,7.32-3.88" vector-effect="non-scaling-stroke"/>
  <path class="cls-14" d="M121.97,5.88c.59,1.8.77,4.08.77,6.22,0,2.46.56,4.88,1.54,6.6.85,1.5,1.54,2.72,1.54,2.72h0s-2.08,8.92-4.63,19.81c-2.54,10.89-4.8,19.99-5.01,20.2s-3.33-.66-6.94-1.94-9.68-2.86-13.49-3.5-8.85-1.17-11.18-1.17-6.85.53-10.02,1.17-7.69,2.04-10.02,3.11-4.76,1.94-5.4,1.94c-.96,0-1.03-.47-.39-2.72.42-1.5,2.51-9.53,4.63-17.87s4.55-17.95,5.4-21.37,1.89-7.09,2.31-8.16c.54-1.36,2.51-2.76,6.55-4.66,3.18-1.5,8.56-3.25,11.95-3.88,3.92-.75,8.55-1.03,12.72-.78,3.61.21,9.5,1.26,19.66,4.27Z"/>
  <path class="cls-12" d="M121.97,5.88h0s1.39.53,3.08,1.17c1.71.64,3.08,1.69,3.08,2.33s-.52,3.61-2.31,12.04h0s-.69-1.22-1.54-2.72c-.98-1.72-1.54-4.14-1.54-6.6,0-2.14-.18-4.41-.77-6.22Z"/>
  <path class="cls-9" d="M41.01,54.82h2.31c.42,0,.77-.35.77-.78s-.52-.6-1.16-.39-1.16.39-1.16.39h0s-2.08-.35-4.63-.78-4.8-.96-5.01-1.17.66-3.19,4.24-12.82l8.87-.39c6.55-.29,9.77-.79,12.34-1.94,2.91-1.31,3.47-1.37,3.47-.39,0,.64-1.39,6.59-3.08,13.21s-3.43,13.09-3.86,14.37-.77,2.86-.77,3.5,3.12,3.44,13.88,11.27l-1.54,1.55c-.85.85-3.28,2.25-5.4,3.11s-7.32,2.25-11.57,3.11c-6.26,1.26-9.66,1.48-18.12,1.17-8-.3-11.93-.84-16.96-2.33-3.61-1.07-7.94-2.81-9.64-3.88-1.7-1.07-3.25-2.29-3.47-2.72-.22-.44.64-.78,1.93-.78s4.92-1.4,8.1-3.11c5.58-3,6.04-3.11,13.11-3.11,4.03,0,8.88-.18,10.79-.39s3.47-.74,3.47-1.17-3.47-1.13-7.71-1.55-7.89-.96-8.1-1.17,1.17-2.66,3.08-5.44,4.16-5.4,5.01-5.83,3.62-.96,10.79-1.55Z"/>
  <path class="cls-13" d="M41.01,54.82h.39c.21,0,.39-.18.39-.78h0s.52-.18,1.16-.39,1.16-.04,1.16.39-.35.78-.77.78h-2.31Z"/>
  <path class="cls-10" d="M70.31,71.14h-2.31c-.44,0-.61-1.17-.39-2.72.23-1.61-.08-3.67-.77-5.05-.63-1.28-1.16-2.33-1.16-2.33h0s.86-.35,1.93-.78,2.79-.96,3.86-1.17,1.93-.04,1.93.39-.69,3.22-3.08,11.65Z"/>
  <path class="cls-11" d="M65.69,61.04h0s.52,1.05,1.16,2.33c.69,1.38,1,3.44.77,5.05-.22,1.55-.05,2.72.39,2.72h2.31s-.35,1.22-.77,2.72c-.54,1.89-1.13,2.6-1.93,2.33-.63-.21-3.24-1.96-5.78-3.88-2.95-2.24-4.63-4.06-4.63-5.05,0-.85.52-1.9,1.16-2.33s2.54-1.48,7.32-3.88Z"/>
  <text class="cls-1" transform="translate(136.48 43.52)"><tspan x="0" y="0">BANNERS</tspan></text>
  <text class="cls-2" transform="translate(136.48 86.63)"><tspan class="cls-17" x="0" y="0">ON THE F</tspan><tspan class="cls-15" x="175.64" y="0">L</tspan><tspan class="cls-16" x="195.31" y="0">Y</tspan></text>
</svg>