<?xml version="1.0" encoding="UTF-8"?>
<svg id="Layer_1" data-name="Layer 1" xmlns="http://www.w3.org/2000/svg" viewBox="0 0 214.78 53.57">
  <defs>
    <style>
      .cls-1 {
        stroke: #cf452b;
      }

      .cls-1, .cls-2, .cls-3, .cls-4, .cls-5, .cls-6 {
        fill: none;
      }

      .cls-2 {
        stroke: #e6a269;
      }

      .cls-7 {
        fill: #e16629;
      }

      .cls-7, .cls-8, .cls-9, .cls-10, .cls-11, .cls-12 {
        fill-rule: evenodd;
      }

      .cls-3 {
        stroke: #e16629;
      }

      .cls-4 {
        stroke: #e36726;
      }

      .cls-13 {
        fill: #ff6b35;
        font-size: 19.02px;
      }

      .cls-13, .cls-14 {
        font-family: Arial-BoldMT, Arial;
        font-weight: 700;
        isolation: isolate;
      }

      .cls-14 {
        fill: #1e3a8a;
        font-size: 27.17px;
        letter-spacing: .05em;
      }

      .cls-8 {
        fill: #173678;
      }

      .cls-9 {
        fill: #22448a;
      }

      .cls-10 {
        fill: #cf452b;
      }

      .cls-5 {
        stroke: #22448a;
      }

      .cls-11 {
        fill: #e6a269;
      }

      .cls-15 {
        letter-spacing: -.06em;
      }

      .cls-12 {
        fill: #e36726;
      }

      .cls-6 {
        stroke: #173678;
      }

      .cls-16 {
        letter-spacing: .02em;
      }

      .cls-17 {
        letter-spacing: .03em;
      }
    </style>
  </defs>
  <path class="cls-4" d="M67.64,11.47h0s-1.12,4.78-2.48,10.61-2.57,10.71-2.68,10.82-1.78-.35-3.72-1.04-5.18-1.53-7.23-1.87-4.74-.62-5.99-.62-3.67.28-5.37.62-4.12,1.09-5.37,1.66-2.55,1.04-2.89,1.04c-.51,0-.55-.25-.21-1.46.23-.8,1.34-5.11,2.48-9.57s2.44-9.61,2.89-11.45,1.01-3.8,1.24-4.37c.29-.73,1.34-1.48,3.51-2.5,1.7-.8,4.58-1.74,6.4-2.08,2.1-.4,4.58-.55,6.82-.42,1.93.11,5.09.67,10.53,2.29" vector-effect="non-scaling-stroke"/>
  <path class="cls-1" d="M65.57,3.15h0s.74.28,1.65.62c.92.35,1.65.9,1.65,1.25s-.28,1.94-1.24,6.45" vector-effect="non-scaling-stroke"/>
  <path class="cls-1" d="M67.64,11.47h0s-.37-.65-.83-1.46c-.52-.92-.83-2.22-.83-3.54,0-1.14-.1-2.36-.41-3.33" vector-effect="non-scaling-stroke"/>
  <path class="cls-3" d="M22.62,28.95h0s-1.12-.19-2.48-.42-2.57-.51-2.68-.62.35-1.71,2.27-6.87l4.75-.21c3.51-.15,5.23-.42,6.61-1.04,1.56-.7,1.86-.73,1.86-.21,0,.34-.74,3.53-1.65,7.08s-1.84,7.01-2.07,7.7-.41,1.53-.41,1.87,1.67,1.84,7.43,6.03l-.83.83c-.45.46-1.76,1.21-2.89,1.66s-3.92,1.21-6.2,1.66c-3.35.67-5.18.79-9.71.62-4.28-.16-6.39-.45-9.09-1.25-1.93-.57-4.25-1.51-5.16-2.08-.91-.57-1.74-1.23-1.86-1.46-.12-.23.34-.42,1.03-.42s2.64-.75,4.34-1.66c2.99-1.61,3.23-1.66,7.02-1.66,2.16,0,4.76-.1,5.78-.21s1.86-.4,1.86-.62-1.86-.6-4.13-.83-4.23-.51-4.34-.62.63-1.43,1.65-2.91,2.23-2.89,2.68-3.12,1.94-.51,5.78-.83" vector-effect="non-scaling-stroke"/>
  <path class="cls-2" d="M22.2,29.37h.21c.11,0,.21-.1.21-.42" vector-effect="non-scaling-stroke"/>
  <path class="cls-2" d="M22.62,28.95h0s.28-.1.62-.21.62-.02.62.21-.19.42-.41.42h-1.24" vector-effect="non-scaling-stroke"/>
  <path class="cls-6" d="M35.42,32.7h0s.46-.19,1.03-.42,1.5-.51,2.07-.62,1.03-.02,1.03.21-.37,1.73-1.65,6.24" vector-effect="non-scaling-stroke"/>
  <path class="cls-5" d="M35.42,32.7h0s.28.56.62,1.25c.37.74.54,1.84.41,2.71-.12.83-.03,1.46.21,1.46h1.24" vector-effect="non-scaling-stroke"/>
  <path class="cls-5" d="M37.9,38.11h0s-.19.65-.41,1.46c-.29,1.01-.6,1.39-1.03,1.25-.34-.11-1.73-1.05-3.1-2.08-1.58-1.2-2.48-2.17-2.48-2.71,0-.46.28-1.02.62-1.25s1.36-.79,3.92-2.08" vector-effect="non-scaling-stroke"/>
  <path class="cls-12" d="M65.57,3.15c.32.97.41,2.19.41,3.33,0,1.32.3,2.61.83,3.54.45.8.83,1.46.83,1.46h0s-1.12,4.78-2.48,10.61-2.57,10.71-2.68,10.82-1.78-.35-3.72-1.04-5.18-1.53-7.23-1.87-4.74-.62-5.99-.62-3.67.28-5.37.62-4.12,1.09-5.37,1.66-2.55,1.04-2.89,1.04c-.51,0-.55-.25-.21-1.46.23-.8,1.34-5.11,2.48-9.57s2.44-9.61,2.89-11.45,1.01-3.8,1.24-4.37c.29-.73,1.34-1.48,3.51-2.5,1.7-.8,4.58-1.74,6.4-2.08,2.1-.4,4.58-.55,6.82-.42,1.93.11,5.09.67,10.53,2.29Z"/>
  <path class="cls-10" d="M65.57,3.15h0s.74.28,1.65.62c.92.35,1.65.9,1.65,1.25s-.28,1.94-1.24,6.45h0s-.37-.65-.83-1.46c-.52-.92-.83-2.22-.83-3.54,0-1.14-.1-2.36-.41-3.33Z"/>
  <path class="cls-7" d="M22.2,29.37h1.24c.23,0,.41-.19.41-.42s-.28-.32-.62-.21-.62.21-.62.21h0s-1.12-.19-2.48-.42-2.57-.51-2.68-.62.35-1.71,2.27-6.87l4.75-.21c3.51-.15,5.23-.42,6.61-1.04,1.56-.7,1.86-.73,1.86-.21,0,.34-.74,3.53-1.65,7.08s-1.84,7.01-2.07,7.7-.41,1.53-.41,1.87,1.67,1.84,7.43,6.03l-.83.83c-.45.46-1.76,1.21-2.89,1.66s-3.92,1.21-6.2,1.66c-3.35.67-5.18.79-9.71.62-4.28-.16-6.39-.45-9.09-1.25-1.93-.57-4.25-1.51-5.16-2.08-.91-.57-1.74-1.23-1.86-1.46-.12-.23.34-.42,1.03-.42s2.64-.75,4.34-1.66c2.99-1.61,3.23-1.66,7.02-1.66,2.16,0,4.76-.1,5.78-.21s1.86-.4,1.86-.62-1.86-.6-4.13-.83-4.23-.51-4.34-.62.63-1.43,1.65-2.91,2.23-2.89,2.68-3.12,1.94-.51,5.78-.83Z"/>
  <path class="cls-11" d="M22.2,29.37h.21c.11,0,.21-.1.21-.42h0s.28-.1.62-.21.62-.02.62.21-.19.42-.41.42h-1.24Z"/>
  <path class="cls-8" d="M37.9,38.11h-1.24c-.24,0-.33-.62-.21-1.46.12-.86-.05-1.96-.41-2.71-.34-.69-.62-1.25-.62-1.25h0s.46-.19,1.03-.42,1.5-.51,2.07-.62,1.03-.02,1.03.21-.37,1.73-1.65,6.24Z"/>
  <path class="cls-9" d="M35.42,32.7h0s.28.56.62,1.25c.37.74.54,1.84.41,2.71-.12.83-.03,1.46.21,1.46h1.24s-.19.65-.41,1.46c-.29,1.01-.6,1.39-1.03,1.25-.34-.11-1.73-1.05-3.1-2.08-1.58-1.2-2.48-2.17-2.48-2.71,0-.46.28-1.02.62-1.25s1.36-.79,3.92-2.08Z"/>
  <text class="cls-14" transform="translate(73.34 23.31)"><tspan x="0" y="0">BANNERS</tspan></text>
  <text class="cls-13" transform="translate(73.34 46.41)"><tspan class="cls-17" x="0" y="0">ON THE F</tspan><tspan class="cls-15" x="94.09" y="0">L</tspan><tspan class="cls-16" x="104.63" y="0">Y</tspan></text>
</svg>