<?xml version="1.0" encoding="UTF-8"?>
<svg id="Layer_1" data-name="Layer 1" xmlns="http://www.w3.org/2000/svg" viewBox="0 0 520.93 108.62">
  <defs>
    <style>
      .cls-1 {
        stroke: #cf452b;
      }

      .cls-1, .cls-2, .cls-3, .cls-4, .cls-5, .cls-6 {
        fill: none;
      }

      .cls-2 {
        stroke: #e6a269;
      }

      .cls-7 {
        fill: #e16629;
      }

      .cls-7, .cls-8, .cls-9, .cls-10, .cls-11, .cls-12 {
        fill-rule: evenodd;
      }

      .cls-3 {
        stroke: #e16629;
      }

      .cls-4 {
        stroke: #e36726;
      }

      .cls-8 {
        fill: #173678;
      }

      .cls-9 {
        fill: #22448a;
      }

      .cls-10 {
        fill: #cf452b;
      }

      .cls-5 {
        stroke: #22448a;
      }

      .cls-13 {
        fill: #1e3a8a;
        font-size: 55.1px;
        letter-spacing: .05em;
      }

      .cls-13, .cls-14 {
        font-family: Arial-BoldMT, Arial;
        font-weight: 700;
        isolation: isolate;
      }

      .cls-11 {
        fill: #e6a269;
      }

      .cls-15 {
        letter-spacing: -.06em;
      }

      .cls-12 {
        fill: #e36726;
      }

      .cls-6 {
        stroke: #173678;
      }

      .cls-16 {
        letter-spacing: .02em;
      }

      .cls-14 {
        fill: #ff6b35;
        font-size: 38.57px;
      }

      .cls-17 {
        letter-spacing: .03em;
      }
    </style>
  </defs>
  <path class="cls-4" d="M220.29,23.26h0s-2.28,9.69-5.06,21.52-5.26,21.71-5.49,21.94-3.65-.72-7.6-2.11-10.59-3.11-14.77-3.8-9.69-1.27-12.24-1.27-7.49.57-10.97,1.27-8.42,2.21-10.97,3.38-5.22,2.11-5.91,2.11c-1.05,0-1.12-.51-.42-2.95.46-1.63,2.74-10.35,5.06-19.41,2.32-9.06,4.98-19.49,5.91-23.21s2.07-7.7,2.53-8.86c.59-1.48,2.74-3,7.17-5.06,3.48-1.63,9.37-3.53,13.08-4.22,4.3-.81,9.36-1.11,13.92-.84,3.95.23,10.4,1.37,21.52,4.64" vector-effect="non-scaling-stroke"/>
  <path class="cls-1" d="M216.07,6.39h0s1.52.57,3.38,1.27c1.87.7,3.38,1.83,3.38,2.53s-.57,3.92-2.53,13.08" vector-effect="non-scaling-stroke"/>
  <path class="cls-1" d="M220.29,23.26h0s-.76-1.32-1.69-2.95c-1.07-1.87-1.69-4.5-1.69-7.17,0-2.32-.19-4.79-.84-6.75" vector-effect="non-scaling-stroke"/>
  <path class="cls-3" d="M128.31,58.71h0s-2.28-.38-5.06-.84-5.26-1.04-5.49-1.27.72-3.46,4.64-13.92l9.7-.42c7.17-.31,10.69-.86,13.5-2.11,3.19-1.42,3.8-1.49,3.8-.42,0,.69-1.52,7.16-3.38,14.35s-3.76,14.22-4.22,15.61-.84,3.11-.84,3.8,3.42,3.74,15.19,12.24l-1.69,1.69c-.93.93-3.59,2.45-5.91,3.38s-8.02,2.45-12.66,3.38c-6.85,1.37-10.57,1.61-19.83,1.27-8.75-.32-13.06-.91-18.57-2.53-3.95-1.16-8.69-3.05-10.55-4.22-1.86-1.16-3.56-2.49-3.8-2.95-.24-.47.7-.84,2.11-.84s5.38-1.52,8.86-3.38c6.11-3.26,6.61-3.38,14.35-3.38,4.41,0,9.72-.19,11.81-.42s3.8-.8,3.8-1.27-3.8-1.22-8.44-1.69-8.63-1.04-8.86-1.27,1.28-2.89,3.38-5.91,4.56-5.87,5.49-6.33,3.97-1.04,11.81-1.69" vector-effect="non-scaling-stroke"/>
  <path class="cls-2" d="M0,82.66h.77c.42,0,.77-.35.77-1.54" vector-effect="non-scaling-stroke"/>
  <path class="cls-2" d="M128.31,58.71h0s.57-.19,1.27-.42,1.27-.04,1.27.42-.38.84-.84.84h-2.53" vector-effect="non-scaling-stroke"/>
  <path class="cls-6" d="M154.47,66.3h0s.95-.38,2.11-.84,3.05-1.04,4.22-1.27,2.11-.04,2.11.42-.76,3.5-3.38,12.66" vector-effect="non-scaling-stroke"/>
  <path class="cls-5" d="M154.47,66.3h0s.57,1.14,1.27,2.53c.75,1.5,1.1,3.74.84,5.49-.24,1.69-.06,2.95.42,2.95h2.53" vector-effect="non-scaling-stroke"/>
  <path class="cls-5" d="M159.53,77.27h0s-.38,1.32-.84,2.95c-.59,2.05-1.23,2.83-2.11,2.53-.69-.23-3.54-2.13-6.33-4.22-3.23-2.43-5.06-4.41-5.06-5.49,0-.93.57-2.07,1.27-2.53s2.78-1.6,8.02-4.22" vector-effect="non-scaling-stroke"/>
  <path class="cls-12" d="M216.07,6.39c.65,1.96.84,4.43.84,6.75,0,2.68.62,5.3,1.69,7.17.93,1.63,1.69,2.95,1.69,2.95h0s-2.28,9.69-5.06,21.52-5.26,21.71-5.49,21.94-3.65-.72-7.6-2.11-10.59-3.11-14.77-3.8-9.69-1.27-12.24-1.27-7.49.57-10.97,1.27-8.42,2.21-10.97,3.38-5.22,2.11-5.91,2.11c-1.05,0-1.12-.51-.42-2.95.46-1.63,2.74-10.35,5.06-19.41,2.32-9.06,4.98-19.49,5.91-23.21s2.07-7.7,2.53-8.86c.59-1.48,2.74-3,7.17-5.06,3.48-1.63,9.37-3.53,13.08-4.22,4.3-.81,9.36-1.11,13.92-.84,3.95.23,10.4,1.37,21.52,4.64Z"/>
  <path class="cls-10" d="M216.07,6.39h0s1.52.57,3.38,1.27c1.87.7,3.38,1.83,3.38,2.53s-.57,3.92-2.53,13.08h0s-.76-1.32-1.69-2.95c-1.07-1.87-1.69-4.5-1.69-7.17,0-2.32-.19-4.79-.84-6.75Z"/>
  <path class="cls-7" d="M127.46,59.55h2.53c.46,0,.84-.38.84-.84s-.57-.65-1.27-.42-1.27.42-1.27.42h0s-2.28-.38-5.06-.84-5.26-1.04-5.49-1.27.72-3.46,4.64-13.92l9.7-.42c7.17-.31,10.69-.86,13.5-2.11,3.19-1.42,3.8-1.49,3.8-.42,0,.69-1.52,7.16-3.38,14.35s-3.76,14.22-4.22,15.61-.84,3.11-.84,3.8,3.42,3.74,15.19,12.24l-1.69,1.69c-.93.93-3.59,2.45-5.91,3.38s-8.02,2.45-12.66,3.38c-6.85,1.37-10.57,1.61-19.83,1.27-8.75-.32-13.06-.91-18.57-2.53-3.95-1.16-8.69-3.05-10.55-4.22-1.86-1.16-3.56-2.49-3.8-2.95-.24-.47.7-.84,2.11-.84s5.38-1.52,8.86-3.38c6.11-3.26,6.61-3.38,14.35-3.38,4.41,0,9.72-.19,11.81-.42s3.8-.8,3.8-1.27-3.8-1.22-8.44-1.69-8.63-1.04-8.86-1.27,1.28-2.89,3.38-5.91,4.56-5.87,5.49-6.33,3.97-1.04,11.81-1.69Z"/>
  <path class="cls-11" d="M127.46,59.55h.42c.23,0,.42-.19.42-.84h0s.57-.19,1.27-.42,1.27-.04,1.27.42-.38.84-.84.84h-2.53Z"/>
  <path class="cls-8" d="M159.53,77.27h-2.53c-.48,0-.67-1.27-.42-2.95.25-1.75-.09-3.98-.84-5.49-.69-1.39-1.27-2.53-1.27-2.53h0s.95-.38,2.11-.84,3.05-1.04,4.22-1.27,2.11-.04,2.11.42-.76,3.5-3.38,12.66Z"/>
  <path class="cls-9" d="M154.47,66.3h0s.57,1.14,1.27,2.53c.75,1.5,1.1,3.74.84,5.49-.24,1.69-.06,2.95.42,2.95h2.53s-.38,1.32-.84,2.95c-.59,2.05-1.23,2.83-2.11,2.53-.69-.23-3.54-2.13-6.33-4.22-3.23-2.43-5.06-4.41-5.06-5.49,0-.93.57-2.07,1.27-2.53s2.78-1.6,8.02-4.22Z"/>
  <text class="cls-13" transform="translate(231.95 47.27)"><tspan x="0" y="0">BANNERS</tspan></text>
  <text class="cls-14" transform="translate(231.95 94.1)"><tspan class="cls-17" x="0" y="0">ON THE F</tspan><tspan class="cls-15" x="190.78" y="0">L</tspan><tspan class="cls-16" x="212.15" y="0">Y</tspan></text>
</svg>