<?xml version="1.0" encoding="UTF-8"?>
<svg id="Layer_1" data-name="Layer 1" xmlns="http://www.w3.org/2000/svg" viewBox="0 0 799.04 198.12">
  <defs>
    <style>
      .cls-1 {
        fill: #ff6b35;
        font-size: 70.35px;
      }

      .cls-1, .cls-2 {
        font-family: Arial-BoldMT, Arial;
        font-weight: 700;
        isolation: isolate;
      }

      .cls-3 {
        stroke: #cf452b;
      }

      .cls-3, .cls-4, .cls-5, .cls-6, .cls-7, .cls-8 {
        fill: none;
      }

      .cls-4 {
        stroke: #e6a269;
      }

      .cls-9 {
        fill: #e16629;
      }

      .cls-9, .cls-10, .cls-11, .cls-12, .cls-13, .cls-14 {
        fill-rule: evenodd;
      }

      .cls-5 {
        stroke: #e16629;
      }

      .cls-6 {
        stroke: #e36726;
      }

      .cls-10 {
        fill: #173678;
      }

      .cls-2 {
        fill: #1e3a8a;
        font-size: 100.5px;
        letter-spacing: .05em;
      }

      .cls-11 {
        fill: #22448a;
      }

      .cls-12 {
        fill: #cf452b;
      }

      .cls-7 {
        stroke: #22448a;
      }

      .cls-13 {
        fill: #e6a269;
      }

      .cls-15 {
        letter-spacing: -.06em;
      }

      .cls-14 {
        fill: #e36726;
      }

      .cls-8 {
        stroke: #173678;
      }

      .cls-16 {
        letter-spacing: .02em;
      }

      .cls-17 {
        letter-spacing: .03em;
      }
    </style>
  </defs>
  <path class="cls-6" d="M250.7,42.43h0s-4.16,17.67-9.24,39.25c-5.08,21.58-9.59,39.61-10.01,40.02s-6.65-1.31-13.85-3.85c-7.2-2.54-19.32-5.66-26.94-6.93s-17.67-2.31-22.32-2.31-13.67,1.05-20.01,2.31-15.36,4.03-20.01,6.16c-4.65,2.12-9.51,3.85-10.77,3.85-1.91,0-2.05-.94-.77-5.39.85-2.97,5-18.89,9.24-35.4s9.08-35.56,10.77-42.33,3.77-14.04,4.62-16.16c1.08-2.69,5-5.46,13.08-9.24,6.34-2.97,17.09-6.43,23.86-7.7,7.83-1.48,17.07-2.03,25.4-1.54,7.2.42,18.96,2.49,39.25,8.47" vector-effect="non-scaling-stroke"/>
  <path class="cls-3" d="M243,11.65h0s2.77,1.05,6.16,2.31c3.42,1.28,6.16,3.34,6.16,4.62s-1.05,7.16-4.62,23.86" vector-effect="non-scaling-stroke"/>
  <path class="cls-3" d="M250.7,42.43h0s-1.39-2.42-3.08-5.39c-1.95-3.42-3.08-8.2-3.08-13.08,0-4.23-.35-8.74-1.54-12.31" vector-effect="non-scaling-stroke"/>
  <path class="cls-5" d="M82.92,107.08h0s-4.16-.69-9.24-1.54-9.59-1.89-10.01-2.31,1.31-6.31,8.47-25.4l17.7-.77c13.08-.57,19.5-1.57,24.63-3.85,5.82-2.59,6.93-2.71,6.93-.77,0,1.26-2.77,13.05-6.16,26.17-3.39,13.11-6.85,25.94-7.7,28.48s-1.54,5.66-1.54,6.93,6.23,6.82,27.71,22.32l-3.08,3.08c-1.69,1.69-6.54,4.46-10.77,6.16s-14.62,4.46-23.09,6.16c-12.5,2.49-19.29,2.94-36.17,2.31-15.96-.58-23.81-1.66-33.86-4.62-7.2-2.12-15.85-5.57-19.24-7.7-3.39-2.12-6.5-4.54-6.93-5.39-.43-.86,1.28-1.54,3.85-1.54s9.82-2.77,16.16-6.16c11.14-5.94,12.05-6.16,26.17-6.16,8.05,0,17.73-.35,21.55-.77s6.93-1.46,6.93-2.31-6.93-2.23-15.39-3.08-15.75-1.89-16.16-2.31,2.34-5.28,6.16-10.77c3.82-5.5,8.31-10.7,10.01-11.54s7.23-1.89,21.55-3.08" vector-effect="non-scaling-stroke"/>
  <path class="cls-4" d="M81.38,108.62h.77c.42,0,.77-.35.77-1.54" vector-effect="non-scaling-stroke"/>
  <path class="cls-4" d="M82.92,107.08h0s1.05-.35,2.31-.77,2.31-.08,2.31.77-.69,1.54-1.54,1.54h-4.62" vector-effect="non-scaling-stroke"/>
  <path class="cls-8" d="M130.63,120.94h0s1.72-.69,3.85-1.54,5.57-1.89,7.7-2.31,3.85-.08,3.85.77-1.39,6.39-6.16,23.09" vector-effect="non-scaling-stroke"/>
  <path class="cls-7" d="M130.63,120.94h0s1.05,2.08,2.31,4.62c1.37,2.74,2,6.82,1.54,10.01-.45,3.08-.11,5.39.77,5.39h4.62" vector-effect="non-scaling-stroke"/>
  <path class="cls-7" d="M139.87,140.95h0s-.69,2.42-1.54,5.39c-1.08,3.74-2.25,5.16-3.85,4.62-1.26-.42-6.46-3.88-11.54-7.7-5.9-4.43-9.24-8.03-9.24-10.01,0-1.69,1.05-3.77,2.31-4.62s5.08-2.92,14.62-7.7" vector-effect="non-scaling-stroke"/>
  <path class="cls-14" d="M243,11.65c1.19,3.57,1.54,8.08,1.54,12.31,0,4.88,1.12,9.67,3.08,13.08,1.69,2.97,3.08,5.39,3.08,5.39h0s-4.16,17.67-9.24,39.25c-5.08,21.58-9.59,39.61-10.01,40.02s-6.65-1.31-13.85-3.85c-7.2-2.54-19.32-5.66-26.94-6.93s-17.67-2.31-22.32-2.31-13.67,1.05-20.01,2.31-15.36,4.03-20.01,6.16c-4.65,2.12-9.51,3.85-10.77,3.85-1.91,0-2.05-.94-.77-5.39.85-2.97,5-18.89,9.24-35.4s9.08-35.56,10.77-42.33,3.77-14.04,4.62-16.16c1.08-2.69,5-5.46,13.08-9.24,6.34-2.97,17.09-6.43,23.86-7.7,7.83-1.48,17.07-2.03,25.4-1.54,7.2.42,18.96,2.49,39.25,8.47Z"/>
  <path class="cls-12" d="M243,11.65h0s2.77,1.05,6.16,2.31c3.42,1.28,6.16,3.34,6.16,4.62s-1.05,7.16-4.62,23.86h0s-1.39-2.42-3.08-5.39c-1.95-3.42-3.08-8.2-3.08-13.08,0-4.23-.35-8.74-1.54-12.31Z"/>
  <path class="cls-9" d="M81.38,108.62h4.62c.85,0,1.54-.69,1.54-1.54s-1.05-1.19-2.31-.77-2.31.77-2.31.77h0s-4.16-.69-9.24-1.54-9.59-1.89-10.01-2.31,1.31-6.31,8.47-25.4l17.7-.77c13.08-.57,19.5-1.57,24.63-3.85,5.82-2.59,6.93-2.71,6.93-.77,0,1.26-2.77,13.05-6.16,26.17-3.39,13.11-6.85,25.94-7.7,28.48s-1.54,5.66-1.54,6.93,6.23,6.82,27.71,22.32l-3.08,3.08c-1.69,1.69-6.54,4.46-10.77,6.16s-14.62,4.46-23.09,6.16c-12.5,2.49-19.29,2.94-36.17,2.31-15.96-.58-23.81-1.66-33.86-4.62-7.2-2.12-15.85-5.57-19.24-7.7-3.39-2.12-6.5-4.54-6.93-5.39-.43-.86,1.28-1.54,3.85-1.54s9.82-2.77,16.16-6.16c11.14-5.94,12.05-6.16,26.17-6.16,8.05,0,17.73-.35,21.55-.77s6.93-1.46,6.93-2.31-6.93-2.23-15.39-3.08-15.75-1.89-16.16-2.31,2.34-5.28,6.16-10.77c3.82-5.5,8.31-10.7,10.01-11.54s7.23-1.89,21.55-3.08Z"/>
  <path class="cls-13" d="M81.38,108.62h.77c.42,0,.77-.35.77-1.54h0s1.05-.35,2.31-.77,2.31-.08,2.31.77-.69,1.54-1.54,1.54h-4.62Z"/>
  <path class="cls-10" d="M139.87,140.95h-4.62c-.88,0-1.22-2.31-.77-5.39.46-3.19-.17-7.27-1.54-10.01-1.26-2.54-2.31-4.62-2.31-4.62h0s1.72-.69,3.85-1.54,5.57-1.89,7.7-2.31,3.85-.08,3.85.77-1.39,6.39-6.16,23.09Z"/>
  <path class="cls-11" d="M130.63,120.94h0s1.05,2.08,2.31,4.62c1.37,2.74,2,6.82,1.54,10.01-.45,3.08-.11,5.39.77,5.39h4.62s-.69,2.42-1.54,5.39c-1.08,3.74-2.25,5.16-3.85,4.62-1.26-.42-6.46-3.88-11.54-7.7-5.9-4.43-9.24-8.03-9.24-10.01,0-1.69,1.05-3.77,2.31-4.62s5.08-2.92,14.62-7.7Z"/>
  <text class="cls-2" transform="translate(271.96 86.22)"><tspan x="0" y="0">BANNERS</tspan></text>
  <text class="cls-1" transform="translate(271.96 171.64)"><tspan class="cls-17" x="0" y="0">ON THE F</tspan><tspan class="cls-15" x="347.98" y="0">L</tspan><tspan class="cls-16" x="386.95" y="0">Y</tspan></text>
</svg>