<?xml version="1.0" encoding="UTF-8"?>
<svg id="Layer_1" data-name="Layer 1" xmlns="http://www.w3.org/2000/svg" viewBox="0 0 153.94 38.36">
  <defs>
    <style>
      .cls-1 {
        fill: #1e3a8a;
        font-size: 19.46px;
        letter-spacing: .05em;
      }

      .cls-1, .cls-2 {
        font-family: Arial-BoldMT, Arial;
        font-weight: 700;
        isolation: isolate;
      }

      .cls-3 {
        stroke: #cf452b;
      }

      .cls-3, .cls-4, .cls-5, .cls-6, .cls-7, .cls-8 {
        fill: none;
      }

      .cls-2 {
        fill: #ff6b35;
        font-size: 13.62px;
      }

      .cls-4 {
        stroke: #e6a269;
      }

      .cls-9 {
        fill: #e16629;
      }

      .cls-9, .cls-10, .cls-11, .cls-12, .cls-13, .cls-14 {
        fill-rule: evenodd;
      }

      .cls-5 {
        stroke: #e16629;
      }

      .cls-6 {
        stroke: #e36726;
      }

      .cls-10 {
        fill: #173678;
      }

      .cls-11 {
        fill: #22448a;
      }

      .cls-12 {
        fill: #cf452b;
      }

      .cls-7 {
        stroke: #22448a;
      }

      .cls-13 {
        fill: #e6a269;
      }

      .cls-15 {
        letter-spacing: -.06em;
      }

      .cls-14 {
        fill: #e36726;
      }

      .cls-8 {
        stroke: #173678;
      }

      .cls-16 {
        letter-spacing: .02em;
      }

      .cls-17 {
        letter-spacing: .04em;
      }
    </style>
  </defs>
  <path class="cls-6" d="M48.57,8.22h0s-.8,3.42-1.77,7.6-1.84,7.67-1.92,7.75-1.28-.25-2.66-.75-3.71-1.1-5.18-1.34-3.4-.45-4.29-.45-2.63.2-3.84.45-2.95.78-3.84,1.19-1.83.75-2.07.75c-.37,0-.39-.18-.15-1.04.16-.58.96-3.66,1.77-6.85s1.75-6.88,2.07-8.2.72-2.72.89-3.13c.21-.52.96-1.06,2.51-1.79,1.22-.58,3.28-1.25,4.58-1.49,1.51-.29,3.28-.39,4.88-.3,1.38.08,3.64.48,7.54,1.64" vector-effect="non-scaling-stroke"/>
  <path class="cls-3" d="M47.1,2.26h0s.53.2,1.18.45c.66.25,1.18.65,1.18.89s-.2,1.39-.89,4.62" vector-effect="non-scaling-stroke"/>
  <path class="cls-3" d="M48.57,8.22h0s-.27-.47-.59-1.04c-.38-.66-.59-1.59-.59-2.53,0-.82-.07-1.69-.3-2.38" vector-effect="non-scaling-stroke"/>
  <path class="cls-5" d="M16.34,20.73h0s-.8-.13-1.77-.3-1.84-.37-1.92-.45.25-1.22,1.63-4.92l3.4-.15c2.51-.11,3.75-.3,4.73-.75,1.12-.5,1.33-.52,1.33-.15,0,.24-.53,2.53-1.18,5.07s-1.32,5.02-1.48,5.51-.3,1.1-.3,1.34,1.2,1.32,5.32,4.32l-.59.6c-.33.33-1.26.86-2.07,1.19s-2.81.86-4.44,1.19c-2.4.48-3.71.57-6.95.45-3.07-.11-4.58-.32-6.51-.89-1.38-.41-3.05-1.08-3.7-1.49-.65-.41-1.25-.88-1.33-1.04-.08-.17.25-.3.74-.3s1.89-.54,3.11-1.19c2.14-1.15,2.32-1.19,5.03-1.19,1.55,0,3.41-.07,4.14-.15s1.33-.28,1.33-.45-1.33-.43-2.96-.6-3.03-.37-3.11-.45.45-1.02,1.18-2.09,1.6-2.07,1.92-2.24,1.39-.37,4.14-.6" vector-effect="non-scaling-stroke"/>
  <path class="cls-4" d="M16.04,21.03h.15c.08,0,.15-.07.15-.3" vector-effect="non-scaling-stroke"/>
  <path class="cls-4" d="M16.34,20.73h0s.2-.07.44-.15.44-.01.44.15-.13.3-.3.3h-.89" vector-effect="non-scaling-stroke"/>
  <path class="cls-8" d="M25.5,23.41h0s.33-.13.74-.3,1.07-.37,1.48-.45.74-.01.74.15-.27,1.24-1.18,4.47" vector-effect="non-scaling-stroke"/>
  <path class="cls-7" d="M25.5,23.41h0s.2.4.44.89c.26.53.38,1.32.3,1.94-.09.6-.02,1.04.15,1.04h.89" vector-effect="non-scaling-stroke"/>
  <path class="cls-7" d="M27.28,27.29h0s-.13.47-.3,1.04c-.21.72-.43,1-.74.89-.24-.08-1.24-.75-2.22-1.49-1.13-.86-1.77-1.56-1.77-1.94,0-.33.2-.73.44-.89s.98-.57,2.81-1.49" vector-effect="non-scaling-stroke"/>
  <path class="cls-14" d="M47.1,2.26c.23.69.3,1.56.3,2.38,0,.94.22,1.87.59,2.53.33.58.59,1.04.59,1.04h0s-.8,3.42-1.77,7.6-1.84,7.67-1.92,7.75-1.28-.25-2.66-.75-3.71-1.1-5.18-1.34-3.4-.45-4.29-.45-2.63.2-3.84.45-2.95.78-3.84,1.19-1.83.75-2.07.75c-.37,0-.39-.18-.15-1.04.16-.58.96-3.66,1.77-6.85s1.75-6.88,2.07-8.2.72-2.72.89-3.13c.21-.52.96-1.06,2.51-1.79,1.22-.58,3.28-1.25,4.58-1.49,1.51-.29,3.28-.39,4.88-.3,1.38.08,3.64.48,7.54,1.64Z"/>
  <path class="cls-12" d="M47.1,2.26h0s.53.2,1.18.45c.66.25,1.18.65,1.18.89s-.2,1.39-.89,4.62h0s-.27-.47-.59-1.04c-.38-.66-.59-1.59-.59-2.53,0-.82-.07-1.69-.3-2.38Z"/>
  <path class="cls-9" d="M16.04,21.03h.89c.16,0,.3-.13.3-.3s-.2-.23-.44-.15-.44.15-.44.15h0s-.8-.13-1.77-.3-1.84-.37-1.92-.45.25-1.22,1.63-4.92l3.4-.15c2.51-.11,3.75-.3,4.73-.75,1.12-.5,1.33-.52,1.33-.15,0,.24-.53,2.53-1.18,5.07s-1.32,5.02-1.48,5.51-.3,1.1-.3,1.34,1.2,1.32,5.32,4.32l-.59.6c-.33.33-1.26.86-2.07,1.19s-2.81.86-4.44,1.19c-2.4.48-3.71.57-6.95.45-3.07-.11-4.58-.32-6.51-.89-1.38-.41-3.05-1.08-3.7-1.49-.65-.41-1.25-.88-1.33-1.04-.08-.17.25-.3.74-.3s1.89-.54,3.11-1.19c2.14-1.15,2.32-1.19,5.03-1.19,1.55,0,3.41-.07,4.14-.15s1.33-.28,1.33-.45-1.33-.43-2.96-.6-3.03-.37-3.11-.45.45-1.02,1.18-2.09,1.6-2.07,1.92-2.24,1.39-.37,4.14-.6Z"/>
  <path class="cls-13" d="M16.04,21.03h.15c.08,0,.15-.07.15-.3h0s.2-.07.44-.15.44-.01.44.15-.13.3-.3.3h-.89Z"/>
  <path class="cls-10" d="M27.28,27.29h-.89c-.17,0-.23-.45-.15-1.04.09-.62-.03-1.41-.3-1.94-.24-.49-.44-.89-.44-.89h0s.33-.13.74-.3,1.07-.37,1.48-.45.74-.01.74.15-.27,1.24-1.18,4.47Z"/>
  <path class="cls-11" d="M25.5,23.41h0s.2.4.44.89c.26.53.38,1.32.3,1.94-.09.6-.02,1.04.15,1.04h.89s-.13.47-.3,1.04c-.21.72-.43,1-.74.89-.24-.08-1.24-.75-2.22-1.49-1.13-.86-1.77-1.56-1.77-1.94,0-.33.2-.73.44-.89s.98-.57,2.81-1.49Z"/>
  <text class="cls-1" transform="translate(52.66 16.69)"><tspan x="0" y="0">BANNERS</tspan></text>
  <text class="cls-2" transform="translate(52.66 33.23)"><tspan class="cls-17" x="0" y="0">ON THE F</tspan><tspan class="cls-15" x="67.37" y="0">L</tspan><tspan class="cls-16" x="74.92" y="0">Y</tspan></text>
</svg>