<svg xmlns="http://www.w3.org/2000/svg" viewBox="0 0 64 24" role="img" aria-label="Visa">
  <path fill="#1A1F71" d="M25.95 21.2h-4.74L24.19 2.8h4.74L25.95 21.2zm19.87-17.98c-.94-.35-2.4-.72-4.22-.72-4.65 0-7.93 2.48-7.95 6.02-.03 2.62 2.35 4.08 4.14 4.95 1.84.9 2.46 1.47 2.46 2.27-.01 1.23-1.48 1.8-2.84 1.8-1.9 0-2.9-.3-4.46-.98l-.61-.29-.67 4.18c1.11.51 3.16.96 5.29.98 4.97 0 8.19-2.45 8.23-6.24.02-2.08-1.25-3.66-3.97-4.96-1.65-.84-2.66-1.4-2.65-2.25 0-.75.85-1.55 2.69-1.55 1.53-.03 2.64.33 3.5.67l.42.2.64-4.08zM58.03 2.8h-3.66c-1.13 0-1.98.33-2.47 1.51L44.87 21.2h4.96l.98-2.73h6.06l.57 2.73h4.37L58.03 2.8zm-5.86 11.93 2.5-6.88 1.44 6.88h-3.94zM17.35 2.8l-4.64 11.87-.5-2.52c-.86-2.92-3.54-6.09-6.55-7.67l4.25 16.7h4.99L22.35 2.8h-5z"/>
</svg>
